<svg viewBox="385.60183313748536 0 581.5895417156287 433.6060800000001" xmlns:xlink="http://www.w3.org/1999/xlink" xmlns="http://www.w3.org/2000/svg" style="max-height: 500px" width="581.5895417156287" height="433.6060800000001"><defs><style>.cls-1{fill:url(#Gradiente_sem_nome_14);}.cls-2{font-size:339.79px;fill:#1d1d1b;font-family:VALORANT-Regular, VALORANT;}.cls-3{fill:url(#Gradiente_sem_nome_14-2);}</style><linearGradient gradientUnits="userSpaceOnUse" y2="207.49" x2="811.55" y1="207.49" x1="425.82" id="Gradiente_sem_nome_14"><stop stop-color="#e4f050" offset="0"/><stop stop-color="#cdf050" offset="0.41"/><stop stop-color="#b8f050" offset="0.75"/></linearGradient><linearGradient xlink:href="#Gradiente_sem_nome_14" y2="207.86" x2="885.48" y1="207.86" x1="618.69" id="Gradiente_sem_nome_14-2"/></defs><g data-name="Camada 2" id="Camada_2"><g data-name="Camada 34" id="Camada_34"><path d="M633.93,415l59-58.95-59.7-.18S485,356.45,485,207.7,633.4,59.33,633.4,59.33H752.23L811.55,0H633.4S425.82-.3,425.82,207.43,633.38,415,633.38,415Z" class="cls-1"/><text transform="translate(13.36 750.52)" class="cls-2">CR3SCE</text><path d="M766.58,177.09H752.81l58.31-58.3h0l0,0h44.3V.28L677.68,178l-59,59H766.16s59.74,0,59.74,59.74-59.32,59.32-59.32,59.32H736.91l-59.32,59.31,88.44.07S885.48,413.8,885.48,296,766.58,177.09,766.58,177.09Z" class="cls-3"/></g></g></svg>